<?xml version="1.0" encoding="utf-8"?>
<!-- Generator: Adobe Illustrator 23.0.3, SVG Export Plug-In . SVG Version: 6.00 Build 0)  -->
<svg version="1.1" id="Layer_1" xmlns="http://www.w3.org/2000/svg" xmlns:xlink="http://www.w3.org/1999/xlink" x="0px" y="0px"
	 viewBox="0 0 932 161" style="enable-background:new 0 0 932 161;" xml:space="preserve">
<style type="text/css">
	.st0{enable-background:new    ;}
	.st1{fill:#FD1F28;}
	.st2{font-family:'Impact';}
	.st3{font-size:103.7277px;}
</style>
<g class="st0">
	<path d="M53,22.3v51.8c0,7-0.2,11.5-0.5,13.5c-0.3,2-1.5,4.2-3.4,6.5c-2,2.3-4.7,4-8.2,5.2c-3.5,1.2-7.9,1.8-13.2,1.8
		c-6.5,0-11.8-1.1-15.7-3.3c-4-2.2-6-6.6-6.1-13h19.9c0,3,1.1,4.5,3.2,4.5c1.6,0,2.6-0.5,3.1-1.4c0.5-0.9,0.8-2.8,0.8-5.7V77
		c-1.8,1.6-3.6,2.8-5.5,3.6c-1.9,0.8-4,1.2-6.1,1.2c-3.7,0-6.7-0.7-9.1-2.2c-2.4-1.5-4-3.4-4.9-5.9c-0.9-2.4-1.3-5.8-1.3-10.3V39.1
		c0-6.4,1.1-11,3.4-13.8c2.3-2.8,5.8-4.2,10.5-4.2c2.6,0,4.9,0.5,7,1.6c2.1,1,4,2.6,5.6,4.7l1.5-5.1H53z M32.5,40.1
		c0-3.1-0.2-5-0.5-5.9c-0.4-0.8-1.1-1.3-2.4-1.3c-1.2,0-2,0.5-2.5,1.4c-0.5,1-0.7,2.9-0.7,5.7v22.6c0,3,0.2,5,0.6,5.8
		c0.4,0.9,1.1,1.3,2.3,1.3c1.4,0,2.2-0.5,2.6-1.6c0.4-1.1,0.6-3.5,0.6-7.3V40.1z"/>
	<path d="M81.4,7.5v10.7H60.3V7.5H81.4z M81.4,22.3v67.2H60.3V22.3H81.4z"/>
	<path d="M108.9,22.3l-0.4,6.4c1.6-2.5,3.5-4.4,5.7-5.7c2.2-1.3,4.7-1.9,7.5-1.9c5.5,0,9.8,2.5,12.9,7.6c1.7-2.5,3.7-4.4,5.8-5.7
		c2.2-1.3,4.6-1.9,7.2-1.9c3.5,0,6.4,0.8,8.6,2.5c2.3,1.7,3.7,3.8,4.4,6.2c0.6,2.4,1,6.4,1,11.9v47.8h-19.9V45.7
		c0-5.7-0.2-9.3-0.6-10.7c-0.4-1.4-1.3-2.1-2.7-2.1c-1.5,0-2.4,0.7-2.8,2c-0.4,1.4-0.6,4.9-0.6,10.7v43.8h-19.9V46.8
		c0-6.6-0.2-10.5-0.5-11.9c-0.3-1.3-1.2-2-2.7-2c-0.9,0-1.7,0.3-2.3,1c-0.6,0.7-1,1.5-1.1,2.5c-0.1,1-0.1,3.1-0.1,6.4v46.6H88.7
		V22.3H108.9z"/>
	<path d="M189.5,22.3l-0.4,6.2c1.5-2.5,3.3-4.3,5.4-5.6c2.1-1.2,4.6-1.9,7.4-1.9c3.5,0,6.4,0.8,8.6,2.5c2.2,1.7,3.7,3.7,4.3,6.3
		c0.6,2.5,1,6.7,1,12.6v47.1h-20.5V43c0-4.6-0.2-7.4-0.5-8.5s-1.1-1.5-2.5-1.5c-1.5,0-2.4,0.6-2.7,1.7s-0.6,4.3-0.6,9.3v45.4h-20.5
		V22.3H189.5z"/>
	<path d="M241.2,48.3H222v-4.5c0-5.2,0.6-9.2,1.8-12c1.2-2.8,3.6-5.3,7.2-7.5c3.6-2.2,8.3-3.2,14.1-3.2c6.9,0,12.1,1.2,15.7,3.7
		c3.5,2.4,5.6,5.5,6.3,9s1.1,10.9,1.1,22v33.7h-19.9v-6c-1.2,2.4-2.9,4.2-4.8,5.4c-2,1.2-4.3,1.8-7.1,1.8c-3.6,0-6.9-1-9.9-3
		s-4.5-6.4-4.5-13.2V69c0-5,0.8-8.5,2.4-10.3c1.6-1.8,5.5-4,11.8-6.4c6.7-2.6,10.3-4.4,10.8-5.3c0.5-0.9,0.7-2.8,0.7-5.6
		c0-3.5-0.3-5.8-0.8-6.9s-1.4-1.6-2.6-1.6c-1.4,0-2.2,0.4-2.6,1.3c-0.3,0.9-0.5,3.2-0.5,7V48.3z M228.2,4.1h18l8.9,13.7h-10.3
		L228.2,4.1z M247.7,57.6c-3.3,2.4-5.2,4.4-5.7,6c-0.5,1.6-0.8,4-0.8,7c0,3.5,0.2,5.7,0.7,6.7c0.5,1,1.4,1.5,2.7,1.5
		c1.3,0,2.1-0.4,2.5-1.2c0.4-0.8,0.6-2.9,0.6-6.3V57.6z"/>
	<path d="M317,43.8h-18.1v-3.6c0-3.1-0.2-5.1-0.5-5.9s-1.2-1.2-2.7-1.2c-1.1,0-2,0.4-2.6,1.1c-0.6,0.8-0.9,1.9-0.9,3.4
		c0,2.1,0.1,3.6,0.4,4.5c0.3,1,1.1,2,2.6,3.2c1.4,1.1,4.4,2.8,8.8,5c5.9,2.9,9.8,5.6,11.7,8.2c1.9,2.6,2.8,6.3,2.8,11.2
		c0,5.5-0.7,9.6-2.1,12.4c-1.4,2.8-3.8,4.9-7.1,6.4c-3.3,1.5-7.3,2.3-12,2.3c-5.2,0-9.6-0.8-13.3-2.4c-3.7-1.6-6.2-3.8-7.6-6.6
		c-1.4-2.8-2.1-7-2.1-12.6v-3.2h18.1v4.3c0,3.6,0.2,6,0.7,7c0.5,1.1,1.4,1.6,2.7,1.6c1.5,0,2.5-0.4,3-1.1c0.6-0.7,0.9-2.3,0.9-4.6
		c0-3.2-0.4-5.2-1.1-6c-0.8-0.8-4.7-3.2-11.9-7.2c-6-3.4-9.7-6.4-11-9.2c-1.3-2.8-2-6-2-9.8c0-5.4,0.7-9.3,2.1-11.9
		c1.4-2.5,3.8-4.5,7.2-5.9c3.4-1.4,7.3-2.1,11.8-2.1c4.5,0,8.2,0.6,11.4,1.7c3.1,1.1,5.5,2.6,7.2,4.5c1.7,1.9,2.7,3.6,3,5.2
		c0.4,1.6,0.5,4.1,0.5,7.4V43.8z"/>
</g>
<g class="st0">
	<path class="st1" d="M365.8,43.8h-18.1v-3.6c0-3.1-0.2-5.1-0.5-5.9s-1.2-1.2-2.7-1.2c-1.1,0-2,0.4-2.6,1.1s-0.9,1.9-0.9,3.4
		c0,2.1,0.1,3.6,0.4,4.5c0.3,1,1.1,2,2.6,3.2c1.4,1.1,4.4,2.8,8.8,5c5.9,2.9,9.8,5.6,11.7,8.2c1.9,2.6,2.8,6.3,2.8,11.2
		c0,5.5-0.7,9.6-2.1,12.4c-1.4,2.8-3.8,4.9-7.1,6.4c-3.3,1.5-7.3,2.3-12,2.3c-5.2,0-9.6-0.8-13.3-2.4c-3.7-1.6-6.2-3.8-7.6-6.6
		c-1.4-2.8-2.1-7-2.1-12.6v-3.2h18.1v4.3c0,3.6,0.2,6,0.7,7c0.5,1.1,1.4,1.6,2.7,1.6c1.5,0,2.5-0.4,3-1.1c0.6-0.7,0.9-2.3,0.9-4.6
		c0-3.2-0.4-5.2-1.1-6c-0.8-0.8-4.7-3.2-11.9-7.2c-6-3.4-9.7-6.4-11-9.2c-1.3-2.8-2-6-2-9.8c0-5.4,0.7-9.3,2.1-11.9
		c1.4-2.5,3.8-4.5,7.2-5.9c3.4-1.4,7.3-2.1,11.8-2.1c4.5,0,8.2,0.6,11.4,1.7c3.1,1.1,5.5,2.6,7.2,4.5c1.7,1.9,2.7,3.6,3,5.2
		c0.4,1.6,0.5,4.1,0.5,7.4V43.8z"/>
	<path class="st1" d="M419.2,45.9v16.5c0,6-0.3,10.5-0.9,13.3c-0.6,2.8-1.9,5.5-3.9,7.9c-2,2.4-4.6,4.3-7.7,5.4
		c-3.1,1.2-6.7,1.7-10.8,1.7c-4.5,0-8.4-0.5-11.5-1.5c-3.1-1-5.6-2.5-7.3-4.5c-1.7-2-3-4.4-3.7-7.3c-0.7-2.9-1.1-7.1-1.1-12.8V47.4
		c0-6.2,0.7-11.1,2-14.6c1.3-3.5,3.8-6.3,7.3-8.5c3.5-2.1,8-3.2,13.5-3.2c4.6,0,8.5,0.7,11.8,2.1c3.3,1.4,5.8,3.1,7.6,5.3
		c1.8,2.2,3,4.5,3.7,6.8C418.8,37.6,419.2,41.1,419.2,45.9z M398.7,40.8c0-3.4-0.2-5.6-0.6-6.5c-0.4-0.9-1.2-1.3-2.4-1.3
		s-2,0.4-2.4,1.3c-0.4,0.9-0.6,3.1-0.6,6.5v30.3c0,3.2,0.2,5.2,0.6,6.2c0.4,1,1.2,1.4,2.4,1.4c1.2,0,2-0.4,2.4-1.3
		c0.4-0.9,0.6-2.8,0.6-5.7V40.8z"/>
	<path class="st1" d="M471.1,47.7h-19.3v-7.7c0-2.7-0.2-4.5-0.7-5.5c-0.4-1-1.3-1.4-2.4-1.4c-1.2,0-2,0.4-2.4,1.3
		c-0.4,0.8-0.6,2.7-0.6,5.7v31.7c0,2.4,0.3,4.2,0.9,5.4c0.6,1.2,1.5,1.8,2.7,1.8c1.4,0,2.3-0.6,2.8-1.9c0.5-1.2,0.7-3.6,0.7-7.1v-8
		h18.2c0,5.4-0.2,9.4-0.6,12.1s-1.5,5.4-3.4,8.3c-1.9,2.8-4.4,4.9-7.5,6.4c-3.1,1.4-6.9,2.2-11.4,2.2c-5.8,0-10.3-1-13.7-3
		c-3.4-2-5.8-4.7-7.2-8.3c-1.4-3.6-2.1-8.6-2.1-15.2V45.2c0-5.7,0.6-10,1.7-12.9c1.1-2.9,3.6-5.5,7.3-7.8s8.3-3.4,13.7-3.4
		c5.3,0,9.9,1.1,13.7,3.4c3.8,2.3,6.3,5.1,7.5,8.6C470.5,36.5,471.1,41.4,471.1,47.7z"/>
	<path class="st1" d="M498.3,7.5v10.7h-21.1V7.5H498.3z M498.3,22.3v67.2h-21.1V22.3H498.3z"/>
	<path class="st1" d="M523.9,48.3h-19.2v-4.5c0-5.2,0.6-9.2,1.8-12c1.2-2.8,3.6-5.3,7.2-7.5c3.6-2.2,8.3-3.2,14.1-3.2
		c6.9,0,12.1,1.2,15.7,3.7c3.5,2.4,5.6,5.5,6.3,9s1.1,10.9,1.1,22v33.7h-19.9v-6c-1.2,2.4-2.9,4.2-4.8,5.4c-2,1.2-4.3,1.8-7.1,1.8
		c-3.6,0-6.9-1-9.9-3s-4.5-6.4-4.5-13.2V69c0-5,0.8-8.5,2.4-10.3s5.5-4,11.8-6.4c6.7-2.6,10.3-4.4,10.8-5.3c0.5-0.9,0.7-2.8,0.7-5.6
		c0-3.5-0.3-5.8-0.8-6.9S528.2,33,527,33c-1.4,0-2.2,0.4-2.6,1.3c-0.3,0.9-0.5,3.2-0.5,7V48.3z M530.4,57.6c-3.3,2.4-5.2,4.4-5.7,6
		c-0.5,1.6-0.8,4-0.8,7c0,3.5,0.2,5.7,0.7,6.7c0.5,1,1.4,1.5,2.7,1.5c1.3,0,2.1-0.4,2.5-1.2c0.4-0.8,0.6-2.9,0.6-6.3V57.6z"/>
	<path class="st1" d="M578.9,7.5v82h-21.1v-82H578.9z"/>
</g>
<g class="st0">
	<path d="M628.1,43.8h-18.1v-3.6c0-3.1-0.2-5.1-0.5-5.9c-0.4-0.8-1.2-1.2-2.7-1.2c-1.1,0-2,0.4-2.6,1.1s-0.9,1.9-0.9,3.4
		c0,2.1,0.1,3.6,0.4,4.5c0.3,1,1.1,2,2.6,3.2c1.4,1.1,4.4,2.8,8.8,5c5.9,2.9,9.8,5.6,11.7,8.2c1.9,2.6,2.8,6.3,2.8,11.2
		c0,5.5-0.7,9.6-2.1,12.4c-1.4,2.8-3.8,4.9-7.1,6.4c-3.3,1.5-7.3,2.3-12,2.3c-5.2,0-9.6-0.8-13.3-2.4c-3.7-1.6-6.2-3.8-7.6-6.6
		c-1.4-2.8-2.1-7-2.1-12.6v-3.2h18.1v4.3c0,3.6,0.2,6,0.7,7c0.5,1.1,1.4,1.6,2.7,1.6c1.5,0,2.5-0.4,3-1.1c0.6-0.7,0.9-2.3,0.9-4.6
		c0-3.2-0.4-5.2-1.1-6c-0.8-0.8-4.7-3.2-11.9-7.2c-6-3.4-9.7-6.4-11-9.2c-1.3-2.8-2-6-2-9.8c0-5.4,0.7-9.3,2.1-11.9
		c1.4-2.5,3.8-4.5,7.2-5.9c3.4-1.4,7.3-2.1,11.8-2.1c4.5,0,8.2,0.6,11.4,1.7c3.1,1.1,5.5,2.6,7.2,4.5c1.7,1.9,2.7,3.6,3,5.2
		c0.4,1.6,0.5,4.1,0.5,7.4V43.8z"/>
	<path d="M653.4,48.3h-19.2v-4.5c0-5.2,0.6-9.2,1.8-12c1.2-2.8,3.6-5.3,7.2-7.5c3.6-2.2,8.3-3.2,14.1-3.2c6.9,0,12.1,1.2,15.7,3.7
		c3.5,2.4,5.6,5.5,6.3,9s1.1,10.9,1.1,22v33.7h-19.9v-6c-1.3,2.4-2.9,4.2-4.8,5.4c-2,1.2-4.3,1.8-7.1,1.8c-3.6,0-6.9-1-9.9-3
		s-4.5-6.4-4.5-13.2V69c0-5,0.8-8.5,2.4-10.3c1.6-1.8,5.5-4,11.8-6.4c6.7-2.6,10.3-4.4,10.8-5.3c0.5-0.9,0.7-2.8,0.7-5.6
		c0-3.5-0.3-5.8-0.8-6.9s-1.4-1.6-2.6-1.6c-1.4,0-2.2,0.4-2.6,1.3c-0.3,0.9-0.5,3.2-0.5,7V48.3z M659.9,57.6c-3.3,2.4-5.2,4.4-5.7,6
		c-0.5,1.6-0.8,4-0.8,7c0,3.5,0.2,5.7,0.7,6.7c0.5,1,1.4,1.5,2.7,1.5c1.3,0,2.1-0.4,2.5-1.2c0.4-0.8,0.6-2.9,0.6-6.3V57.6z"/>
	<path d="M708.2,22.3l-0.4,6.2c1.5-2.5,3.3-4.3,5.4-5.6c2.1-1.2,4.6-1.9,7.4-1.9c3.5,0,6.4,0.8,8.6,2.5c2.2,1.7,3.7,3.7,4.3,6.3
		c0.6,2.5,1,6.7,1,12.6v47.1h-20.5V43c0-4.6-0.2-7.4-0.5-8.5s-1.1-1.5-2.5-1.5c-1.5,0-2.4,0.6-2.7,1.7s-0.6,4.3-0.6,9.3v45.4h-20.5
		V22.3H708.2z"/>
	<path d="M763.2,13.3v10.6h5.5v10.6h-5.5v36c0,4.4,0.2,6.9,0.7,7.4c0.5,0.5,2.4,0.8,5.7,0.8v10.8h-8.3c-4.7,0-8-0.2-10-0.6
		c-2-0.4-3.7-1.3-5.3-2.7c-1.5-1.4-2.5-3-2.8-4.8c-0.4-1.8-0.6-6.1-0.6-12.7V34.6h-4.4V23.9h4.4V13.3H763.2z"/>
	<path d="M794.1,22.3l-0.4,5.9c1.8-2.4,3.8-4.2,6-5.4c2.2-1.2,4.6-1.8,7.2-1.8c3.2,0,5.9,0.9,8.2,2.6c2.3,1.7,3.8,3.7,4.3,5.9
		s0.9,6,0.9,11.3v28.3c0,6.1-0.4,10.5-1.1,13c-0.7,2.6-2.2,4.6-4.5,6.2s-5,2.3-8.1,2.3c-2.5,0-4.9-0.6-7-1.8
		c-2.2-1.2-4.1-2.9-5.9-5.3v15.4h-20.5V22.3H794.1z M799.9,41.9c0-4.2-0.2-6.7-0.5-7.5c-0.3-0.9-1.1-1.3-2.5-1.3
		c-1.3,0-2.2,0.5-2.6,1.5c-0.4,1-0.6,3.5-0.6,7.3v27.9c0,4.1,0.2,6.6,0.6,7.6c0.4,1,1.3,1.5,2.6,1.5c1.3,0,2.1-0.5,2.5-1.4
		c0.3-0.9,0.5-3.2,0.5-6.8V41.9z"/>
	<path d="M845.4,48.3h-19.2v-4.5c0-5.2,0.6-9.2,1.8-12c1.2-2.8,3.6-5.3,7.2-7.5c3.6-2.2,8.3-3.2,14.1-3.2c6.9,0,12.1,1.2,15.7,3.7
		c3.5,2.4,5.6,5.5,6.3,9s1.1,10.9,1.1,22v33.7h-19.9v-6c-1.2,2.4-2.9,4.2-4.8,5.4c-2,1.2-4.3,1.8-7.1,1.8c-3.6,0-6.9-1-9.9-3
		s-4.5-6.4-4.5-13.2V69c0-5,0.8-8.5,2.4-10.3s5.5-4,11.8-6.4c6.7-2.6,10.3-4.4,10.8-5.3c0.5-0.9,0.7-2.8,0.7-5.6
		c0-3.5-0.3-5.8-0.8-6.9s-1.4-1.6-2.6-1.6c-1.4,0-2.2,0.4-2.6,1.3c-0.3,0.9-0.5,3.2-0.5,7V48.3z M851.8,57.6c-3.3,2.4-5.2,4.4-5.7,6
		c-0.5,1.6-0.8,4-0.8,7c0,3.5,0.2,5.7,0.7,6.7c0.5,1,1.4,1.5,2.7,1.5c1.3,0,2.1-0.4,2.5-1.2c0.4-0.8,0.6-2.9,0.6-6.3V57.6z"/>
	<path d="M926.2,22.3v67.2h-20.8l0.4-5.6c-1.4,2.3-3.2,4-5.2,5.1c-2.1,1.1-4.5,1.7-7.2,1.7c-3.1,0-5.6-0.5-7.6-1.6
		c-2-1.1-3.5-2.5-4.5-4.3c-1-1.8-1.6-3.7-1.8-5.6c-0.2-1.9-0.4-5.8-0.4-11.6V22.3h20.5V68c0,5.2,0.2,8.3,0.5,9.3s1.2,1.5,2.6,1.5
		c1.5,0,2.4-0.5,2.7-1.5c0.3-1,0.4-4.3,0.4-9.8V22.3H926.2z"/>
</g>
<text transform="matrix(1 0 0 1 43.8789 154.5103)" class="st2 st3">   </text>
<g>
	<g class="st0">
		<path d="M7.6,129.9h7.6l2-9.3h4.6l-1.9,9.3h8.6l1.9-9.3H35l-1.9,9.3h4.1v4.6h-5l-1.5,7.4h6.6v4.6h-7.5l-1.9,9.3h-4.6l1.9-9.3h-8.6
			l-1.9,9.3H9.8l1.9-9.3H7.6v-4.6h5.1l1.5-7.4H7.6V129.9z M18.8,134.5l-1.5,7.4h8.6l1.5-7.4H18.8z"/>
		<path d="M51.9,116.2v5.2H41.8v-5.2H51.9z M51.9,123.4v32.4H41.8v-32.4H51.9z"/>
		<path d="M67.5,123.4l-0.2,3c0.7-1.2,1.6-2.1,2.6-2.7c1-0.6,2.2-0.9,3.6-0.9c1.7,0,3.1,0.4,4.2,1.2c1.1,0.8,1.8,1.8,2.1,3
			c0.3,1.2,0.5,3.2,0.5,6.1v22.7h-9.9v-22.4c0-2.2-0.1-3.6-0.2-4.1s-0.6-0.7-1.2-0.7c-0.7,0-1.1,0.3-1.3,0.8
			c-0.2,0.6-0.3,2.1-0.3,4.5v21.9h-9.9v-32.4H67.5z"/>
		<path d="M95.7,123.4l-0.2,3c0.7-1.2,1.6-2.1,2.6-2.7c1-0.6,2.2-0.9,3.6-0.9c1.7,0,3.1,0.4,4.2,1.2c1.1,0.8,1.8,1.8,2.1,3
			c0.3,1.2,0.5,3.2,0.5,6.1v22.7h-9.9v-22.4c0-2.2-0.1-3.6-0.2-4.1s-0.6-0.7-1.2-0.7c-0.7,0-1.1,0.3-1.3,0.8
			c-0.2,0.6-0.3,2.1-0.3,4.5v21.9h-9.9v-32.4H95.7z"/>
		<path d="M136.1,134.7v7.9c0,2.9-0.1,5-0.4,6.4s-0.9,2.6-1.9,3.8c-1,1.2-2.2,2.1-3.7,2.6c-1.5,0.6-3.2,0.8-5.2,0.8
			c-2.2,0-4-0.2-5.5-0.7c-1.5-0.5-2.7-1.2-3.5-2.2c-0.8-1-1.4-2.1-1.8-3.5c-0.4-1.4-0.5-3.4-0.5-6.2v-8.3c0-3,0.3-5.4,1-7.1
			c0.7-1.7,1.8-3.1,3.5-4.1s3.9-1.5,6.5-1.5c2.2,0,4.1,0.3,5.7,1c1.6,0.7,2.8,1.5,3.7,2.6c0.9,1.1,1.5,2.1,1.8,3.3
			S136.1,132.4,136.1,134.7z M126.2,132.3c0-1.7-0.1-2.7-0.3-3.1c-0.2-0.4-0.6-0.6-1.1-0.6s-1,0.2-1.2,0.6c-0.2,0.4-0.3,1.5-0.3,3.1
			v14.6c0,1.5,0.1,2.5,0.3,3s0.6,0.7,1.1,0.7c0.6,0,1-0.2,1.2-0.6c0.2-0.4,0.3-1.3,0.3-2.7V132.3z"/>
		<path d="M161.7,123.4l-4.6,32.4h-12.9l-5-32.4h8.8l2.8,23.7c0.2-1.7,0.6-6,1.1-12.7c0.3-3.8,0.6-7.4,1-10.9H161.7z"/>
		<path d="M174,135.9h-9.3v-2.2c0-2.5,0.3-4.4,0.9-5.8c0.6-1.4,1.7-2.6,3.5-3.6c1.7-1,4-1.6,6.8-1.6c3.3,0,5.9,0.6,7.5,1.8
			s2.7,2.6,3.1,4.3s0.5,5.3,0.5,10.6v16.3h-9.6v-2.9c-0.6,1.2-1.4,2-2.3,2.6s-2.1,0.9-3.4,0.9c-1.7,0-3.3-0.5-4.7-1.5
			c-1.4-1-2.2-3.1-2.2-6.4v-2.7c0-2.4,0.4-4.1,1.1-5c0.8-0.9,2.7-1.9,5.7-3.1c3.2-1.3,5-2.1,5.2-2.6c0.2-0.4,0.3-1.3,0.3-2.7
			c0-1.7-0.1-2.8-0.4-3.3c-0.3-0.5-0.7-0.8-1.3-0.8c-0.7,0-1.1,0.2-1.2,0.6c-0.2,0.4-0.2,1.5-0.2,3.4V135.9z M177.1,140.4
			c-1.6,1.2-2.5,2.1-2.7,2.9c-0.3,0.8-0.4,1.9-0.4,3.4c0,1.7,0.1,2.8,0.3,3.2s0.7,0.7,1.3,0.7c0.6,0,1-0.2,1.2-0.6
			c0.2-0.4,0.3-1.4,0.3-3V140.4z"/>
		<path d="M214.2,135.6h-9.3v-3.7c0-1.3-0.1-2.2-0.3-2.6c-0.2-0.5-0.6-0.7-1.2-0.7c-0.6,0-1,0.2-1.1,0.6c-0.2,0.4-0.3,1.3-0.3,2.7
			v15.3c0,1.2,0.1,2,0.4,2.6s0.7,0.9,1.3,0.9c0.7,0,1.1-0.3,1.4-0.9c0.2-0.6,0.4-1.7,0.4-3.4v-3.9h8.8c0,2.6-0.1,4.5-0.3,5.8
			s-0.7,2.6-1.6,4c-0.9,1.4-2.1,2.4-3.6,3.1c-1.5,0.7-3.3,1-5.5,1c-2.8,0-5-0.5-6.6-1.4c-1.6-1-2.8-2.3-3.5-4c-0.7-1.7-1-4.2-1-7.3
			v-9.2c0-2.8,0.3-4.8,0.8-6.2c0.6-1.4,1.7-2.6,3.5-3.7c1.8-1.1,4-1.6,6.6-1.6c2.6,0,4.8,0.5,6.6,1.6c1.8,1.1,3,2.5,3.6,4.1
			S214.2,132.6,214.2,135.6z"/>
		<path d="M229.3,116.2v5.2h-10.2v-5.2H229.3z M229.3,123.4v32.4h-10.2v-32.4H229.3z"/>
		<path d="M257.1,134.7v7.9c0,2.9-0.1,5-0.4,6.4s-0.9,2.6-1.9,3.8c-1,1.2-2.2,2.1-3.7,2.6c-1.5,0.6-3.2,0.8-5.2,0.8
			c-2.2,0-4-0.2-5.5-0.7c-1.5-0.5-2.7-1.2-3.5-2.2c-0.8-1-1.4-2.1-1.8-3.5c-0.4-1.4-0.5-3.4-0.5-6.2v-8.3c0-3,0.3-5.4,1-7.1
			c0.7-1.7,1.8-3.1,3.5-4.1s3.9-1.5,6.5-1.5c2.2,0,4.1,0.3,5.7,1c1.6,0.7,2.8,1.5,3.7,2.6c0.9,1.1,1.5,2.1,1.8,3.3
			S257.1,132.4,257.1,134.7z M254.2,114.6l-8,6.6h-5l4.3-6.6H254.2z M247.2,132.3c0-1.7-0.1-2.7-0.3-3.1c-0.2-0.4-0.6-0.6-1.1-0.6
			s-1,0.2-1.2,0.6c-0.2,0.4-0.3,1.5-0.3,3.1v14.6c0,1.5,0.1,2.5,0.3,3s0.6,0.7,1.1,0.7c0.6,0,1-0.2,1.2-0.6c0.2-0.4,0.3-1.3,0.3-2.7
			V132.3z"/>
		<path d="M284.4,128.2h-9.5v-2.9c0-1.4-0.1-2.2-0.4-2.6c-0.2-0.4-0.7-0.6-1.2-0.6c-0.6,0-1.1,0.3-1.4,0.8s-0.5,1.3-0.5,2.3
			c0,1.3,0.2,2.3,0.5,3c0.3,0.7,1.3,1.5,2.9,2.4c4.6,2.7,7.5,4.9,8.6,6.7s1.8,4.5,1.8,8.4c0,2.8-0.3,4.9-1,6.2
			c-0.7,1.3-1.9,2.5-3.8,3.4c-1.9,0.9-4.1,1.4-6.6,1.4c-2.8,0-5.1-0.5-7-1.6s-3.2-2.4-3.8-4c-0.6-1.6-0.9-3.9-0.9-6.9v-2.6h9.5v4.8
			c0,1.5,0.1,2.4,0.4,2.9c0.3,0.4,0.7,0.6,1.4,0.6s1.2-0.3,1.5-0.8c0.3-0.5,0.5-1.3,0.5-2.4c0-2.3-0.3-3.8-1-4.6
			c-0.7-0.7-2.3-1.9-4.8-3.6c-2.6-1.7-4.2-2.9-5.1-3.7s-1.5-1.8-2.1-3.2c-0.5-1.4-0.8-3.1-0.8-5.2c0-3,0.4-5.2,1.2-6.6
			c0.8-1.4,2-2.5,3.7-3.3c1.7-0.8,3.8-1.2,6.3-1.2c2.7,0,4.9,0.4,6.8,1.3c1.9,0.9,3.1,1.9,3.7,3.3c0.6,1.3,0.9,3.5,0.9,6.7V128.2z"
			/>
		<path d="M312.5,134.7v7.9c0,2.9-0.1,5-0.4,6.4s-0.9,2.6-1.9,3.8c-1,1.2-2.2,2.1-3.7,2.6c-1.5,0.6-3.2,0.8-5.2,0.8
			c-2.2,0-4-0.2-5.5-0.7c-1.5-0.5-2.7-1.2-3.5-2.2c-0.8-1-1.4-2.1-1.8-3.5c-0.4-1.4-0.5-3.4-0.5-6.2v-8.3c0-3,0.3-5.4,1-7.1
			c0.7-1.7,1.8-3.1,3.5-4.1s3.9-1.5,6.5-1.5c2.2,0,4.1,0.3,5.7,1c1.6,0.7,2.8,1.5,3.7,2.6c0.9,1.1,1.5,2.1,1.8,3.3
			S312.5,132.4,312.5,134.7z M302.7,132.3c0-1.7-0.1-2.7-0.3-3.1c-0.2-0.4-0.6-0.6-1.1-0.6s-1,0.2-1.2,0.6c-0.2,0.4-0.3,1.5-0.3,3.1
			v14.6c0,1.5,0.1,2.5,0.3,3s0.6,0.7,1.1,0.7c0.6,0,1-0.2,1.2-0.6c0.2-0.4,0.3-1.3,0.3-2.7V132.3z"/>
		<path d="M339.6,135.6h-9.3v-3.7c0-1.3-0.1-2.2-0.3-2.6c-0.2-0.5-0.6-0.7-1.2-0.7c-0.6,0-1,0.2-1.1,0.6c-0.2,0.4-0.3,1.3-0.3,2.7
			v15.3c0,1.2,0.1,2,0.4,2.6s0.7,0.9,1.3,0.9c0.7,0,1.1-0.3,1.4-0.9c0.2-0.6,0.4-1.7,0.4-3.4v-3.9h8.8c0,2.6-0.1,4.5-0.3,5.8
			s-0.7,2.6-1.6,4c-0.9,1.4-2.1,2.4-3.6,3.1c-1.5,0.7-3.3,1-5.5,1c-2.8,0-5-0.5-6.6-1.4c-1.6-1-2.8-2.3-3.5-4c-0.7-1.7-1-4.2-1-7.3
			v-9.2c0-2.8,0.3-4.8,0.8-6.2c0.6-1.4,1.7-2.6,3.5-3.7c1.8-1.1,4-1.6,6.6-1.6c2.6,0,4.8,0.5,6.6,1.6c1.8,1.1,3,2.5,3.6,4.1
			S339.6,132.6,339.6,135.6z"/>
		<path d="M354.7,116.2v5.2h-10.2v-5.2H354.7z M354.7,123.4v32.4h-10.2v-32.4H354.7z"/>
		<path d="M369,135.9h-9.3v-2.2c0-2.5,0.3-4.4,0.9-5.8c0.6-1.4,1.7-2.6,3.5-3.6c1.7-1,4-1.6,6.8-1.6c3.3,0,5.9,0.6,7.5,1.8
			s2.7,2.6,3.1,4.3s0.5,5.3,0.5,10.6v16.3h-9.6v-2.9c-0.6,1.2-1.4,2-2.3,2.6s-2.1,0.9-3.4,0.9c-1.7,0-3.3-0.5-4.7-1.5
			c-1.4-1-2.2-3.1-2.2-6.4v-2.7c0-2.4,0.4-4.1,1.1-5c0.8-0.9,2.7-1.9,5.7-3.1c3.2-1.3,5-2.1,5.2-2.6c0.2-0.4,0.3-1.3,0.3-2.7
			c0-1.7-0.1-2.8-0.4-3.3c-0.3-0.5-0.7-0.8-1.3-0.8c-0.7,0-1.1,0.2-1.2,0.6c-0.2,0.4-0.2,1.5-0.2,3.4V135.9z M372.1,140.4
			c-1.6,1.2-2.5,2.1-2.7,2.9c-0.3,0.8-0.4,1.9-0.4,3.4c0,1.7,0.1,2.8,0.3,3.2s0.7,0.7,1.3,0.7c0.6,0,1-0.2,1.2-0.6
			c0.2-0.4,0.3-1.4,0.3-3V140.4z"/>
		<path d="M397.5,116.2v39.5h-10.2v-39.5H397.5z"/>
	</g>
</g>
</svg>
