<?xml version="1.0" encoding="utf-8"?>
<!-- Generator: Adobe Illustrator 23.0.3, SVG Export Plug-In . SVG Version: 6.00 Build 0)  -->
<svg version="1.1" id="Layer_1" xmlns="http://www.w3.org/2000/svg" xmlns:xlink="http://www.w3.org/1999/xlink" x="0px" y="0px"
	 viewBox="0 0 118.85 118.85" style="enable-background:new 0 0 118.85 118.85;" xml:space="preserve">
<style type="text/css">
	.st0{fill:#FFFFFF;}
</style>
<g>
	<path class="st0" d="M118,59.5c0,32.31-26.19,58.5-58.5,58.5S1,91.81,1,59.5S27.19,1,59.5,1S118,27.19,118,59.5z M52.61,95.86
		c0.62,1.23,1.5,2.25,2.65,3.05c1.15,0.81,2.46,1.21,3.91,1.21c1.46,0,2.76-0.4,3.91-1.21c1.15-0.81,2.03-1.82,2.65-3.05L87.27,49
		c0.69-1.46,1.13-2.67,1.32-3.63c0.19-0.96,0.29-1.86,0.29-2.71c0-1.84-0.59-3.36-1.78-4.55c-1.19-1.19-2.9-1.78-5.12-1.78
		c-1.3,0-2.57,0.31-3.8,0.92c-1.23,0.62-2.38,2.11-3.45,4.49L64.6,65.89l-0.22-42.14h-9.75l-0.94,41.98L43.63,41.75
		c-1-2.38-2.13-3.88-3.4-4.49c-1.27-0.61-2.55-0.92-3.86-0.92c-2.23,0-3.93,0.6-5.12,1.78c-1.19,1.19-1.78,2.71-1.78,4.55
		c0,0.85,0.1,1.75,0.29,2.71c0.19,0.96,0.63,2.17,1.32,3.63L52.61,95.86z"/>
</g>
</svg>
